# xmcd
#
# Track frame offsets: 
#        150
#        15566
#        38814
#        56002
#        73030
#        100966
#        110777
#        150328
#        167956
#        186205
#
# Disc length: 2710 seconds
#
# Revision: 0
# Processed by: cddbd v1.5.2PL0 Copyright (c) Steve Scherf et al.
# Submitted via: ExactAudioCopy v0.99pb5
#
DISCID=830a940a
DTITLE=Big Daddy Blues  - Big Daddy Blues
DYEAR=2008
DGENRE=Blues
TTITLE0=Drinkin' My Blues Away
TTITLE1=Man So Blue
TTITLE2=You Never Hurt Me
TTITLE3=No One Ever Told Me
TTITLE4=Cry To Me
TTITLE5=Keep On Keepin' On
TTITLE6=Blues Came To See Me
TTITLE7=Rumor Has It
TTITLE8=Muddy Waters
TTITLE9=Bye Bye Baby Goodbye
EXTD=
EXTT0=
EXTT1=
EXTT2=
EXTT3=
EXTT4=
EXTT5=
EXTT6=
EXTT7=
EXTT8=
EXTT9=
PLAYORDER=
